<?xml version="1.0" encoding="utf-8"?>
<!-- Generator: Adobe Illustrator 22.0.1, SVG Export Plug-In . SVG Version: 6.00 Build 0)  -->
<!DOCTYPE svg PUBLIC "-//W3C//DTD SVG 1.1//EN" "http://www.w3.org/Graphics/SVG/1.1/DTD/svg11.dtd">
<svg version="1.1" id="Layer_1" xmlns="http://www.w3.org/2000/svg" xmlns:xlink="http://www.w3.org/1999/xlink" x="0px" y="0px"
	 viewBox="0 0 16.9 23.6" style="enable-background:new 0 0 16.9 23.6;" xml:space="preserve">
<style type="text/css">
	.st0{fill:#891033;}
	.st1{fill:#EC184A;}
</style>
<g>
	<path class="st0" d="M8.4,23.6L8.4,23.6c-0.1-0.1-0.1-0.1-0.1-0.2c-1.1-2-2.2-3.9-3.3-5.9c-1.2-1.8-2.3-3.7-3.3-5.5
		c-1.1-1.8-1.5-3.9-0.9-6c1.1-3.9,4.8-6.4,8.9-5.8c3.2,0.5,5.8,3,6.5,6.2c0.1,0.4,0.1,0.7,0.2,1.1c0,0.5,0,0.9,0,1.4
		c-0.1,0.2-0.1,0.6-0.1,0.9c-0.2,1.1-0.7,2-1.2,3c-2.1,3.7-4.2,7.4-6.4,11.1C8.4,23.5,8.4,23.6,8.4,23.6z M11.3,7.8c0-1.6-1.4-3-3-3
		s-3,1.4-3,3s1.4,3,3,3S11.3,9.6,11.3,7.8z"/>
</g>
<g>
	<path class="st1" d="M8.4,22.1L8.4,22.1C8.3,22,8.3,22,8.3,21.9c-1-1.7-1.9-3.5-2.9-5.2c-1.1-1.6-2.1-3.3-2.9-4.9
		c-1-1.6-1.3-3.5-0.8-5.3c1-3.5,4.2-5.6,7.8-5.1c2.8,0.4,5.1,2.6,5.7,5.4c0.1,0.3,0.1,0.7,0.2,1c0,0.4,0.1,0.5,0.1,1
		c0,0.4-0.1,0.5-0.2,0.9c-0.2,1-0.6,1.7-1.1,2.6c-1.8,3.3-3.7,6.5-5.6,9.8C8.4,22,8.4,22.1,8.4,22.1z M11,8.2c0-1.4-1.2-2.6-2.6-2.6
		S5.8,6.8,5.8,8.2s1.2,2.6,2.6,2.6S11,9.7,11,8.2z"/>
</g>
</svg>
